PathFileType	4	(X/Y/Z)	./resultDataOpenSim/trcMotMarkerGrf/sub10/qtm-14-07.trc
DataRate	CameraRate	NumFrames	NumMarkers	Units	OrigDataRate	OrigDataStartFrame	OrigNumFrames
250.000000	250.000000	13	24	m	250.000000	320	511
Frame#	Time	L.Toe.Tip			R.Toe.Tip			L.Ankle.Lat			R.Ankle.Lat			L.Ankle.Med			R.Ankle.Med			L.Heel			R.Heel			L.Knee.Lat			R.Knee.Lat			L.Knee.Med			R.Knee.Med			L.Thigh.Upper			R.Thigh.Upper			L.ASIS			R.ASIS			V.Sacral			L.Acromium			R.Acromium			C7			L.Elbow			R.Elbow			L.Wrist.Lat			R.Wrist.Lat
		X1	Y1	Z1	X2	Y2	Z2	X3	Y3	Z3	X4	Y4	Z4	X5	Y5	Z5	X6	Y6	Z6	X7	Y7	Z7	X8	Y8	Z8	X9	Y9	Z9	X10	Y10	Z10	X11	Y11	Z11	X12	Y12	Z12	X13	Y13	Z13	X14	Y14	Z14	X15	Y15	Z15	X16	Y16	Z16	X17	Y17	Z17	X18	Y18	Z18	X19	Y19	Z19	X20	Y20	Z20	X21	Y21	Z21	X22	Y22	Z22	X23	Y23	Z23	X24	Y24	Z24

320	1.276	0.066829783	0.015135675	-0.16989424	0.83048623	0.038967073	0.01336934	0.060112942	0.15781528	-0.19926085	0.68918699	0.053678348	0.058075709	0.0940667	0.15313509	-0.12012474	0.70303142	0.07949985	-0.027382299	0.016946888	0.20154125	-0.14663292	0.63651758	0.029519036	0.01521271	0.34483329	0.41621819	-0.213057	0.68456683	0.45162747	0.084153971	0.36544192	0.37009464	-0.09982638	0.68242201	0.46033188	-0.0447299	0.45316204	0.78063609	-0.23459814	0.54255261	0.83921239	0.14658098	0.53812162	0.8858791	-0.17783334	0.59044147	0.91707822	0.053502993	0.36613169	0.92415918	-0.027100187	0.48717559	1.3908812	-0.17937056	0.43020698	1.3825922	0.1250977	0.38894885	1.4025333	-0.03834441	0.44457521	1.0838295	-0.35198335	0.26690289	1.098294	0.21642228	0.6645704	1.0651717	-0.4798572	0.19391057	1.0170571	0.43576034
321	1.28	0.072816836	0.019612655	-0.17274506	0.83047323	0.038940311	0.013381043	0.066922087	0.16252039	-0.20000144	0.68926162	0.053652141	0.057986027	0.10093873	0.15683203	-0.12084098	0.70300345	0.079543039	-0.027333277	0.024060237	0.20609547	-0.14677136	0.63647182	0.029495143	0.015256753	0.35524893	0.41594547	-0.2133089	0.68673185	0.45162922	0.084346658	0.37539669	0.37053747	-0.1000219	0.68512991	0.46053951	-0.044614019	0.45991759	0.78056274	-0.23443046	0.54676706	0.84006965	0.1474935	0.54426397	0.8865536	-0.17714492	0.59592118	0.91855356	0.054821875	0.37106146	0.9245987	-0.028032854	0.49319604	1.3919545	-0.17872521	0.43651333	1.383737	0.12578071	0.39455157	1.404053	-0.037776825	0.44935664	1.0846631	-0.3506648	0.27441261	1.098226	0.21656022	0.66884638	1.0637837	-0.47892258	0.20156105	1.0154584	0.43522779
322	1.284	0.079195083	0.024186325	-0.17539971	0.83046103	0.038922317	0.013400357	0.073978857	0.16721687	-0.20071414	0.68931002	0.053601625	0.057924609	0.10804872	0.16053606	-0.12155748	0.70301554	0.079609204	-0.02726838	0.031362142	0.21060502	-0.14690716	0.63643977	0.029476745	0.015278968	0.36575844	0.4157505	-0.21353398	0.68873242	0.45164092	0.084509854	0.38499884	0.37105229	-0.10009033	0.68749066	0.46073591	-0.044421604	0.46665971	0.78055392	-0.23410222	0.55090866	0.841005	0.14830727	0.55030829	0.88734654	-0.17649336	0.60129745	0.92005547	0.056181486	0.37664214	0.92539293	-0.028435055	0.4991123	1.3930918	-0.17804841	0.44276688	1.3849333	0.12639031	0.40011385	1.4056127	-0.03722166	0.45408489	1.0855582	-0.34929545	0.28193911	1.0981687	0.21665728	0.67304578	1.0623009	-0.47792917	0.2093231	1.0138828	0.43465628
323	1.288	0.085948843	0.028812291	-0.17783603	0.83044873	0.038909018	0.013417738	0.08130876	0.17186924	-0.20139707	0.68928331	0.05354582	0.05791486	0.11539021	0.16424516	-0.12225562	0.7030553	0.079683315	-0.027190772	0.038840121	0.21504268	-0.1470111	0.63643468	0.029471531	0.015260816	0.37637719	0.4156573	-0.21374383	0.69056175	0.45165921	0.084657358	0.39423827	0.37162821	-0.10013078	0.68958323	0.46090871	-0.04417109	0.47341156	0.78066513	-0.23356094	0.55501419	0.84199336	0.1490013	0.55624938	0.88828007	-0.17589332	0.60657805	0.92156996	0.057558544	0.3818208	0.92639199	-0.029182179	0.50492351	1.3942886	-0.17734752	0.44898454	1.3861679	0.12694508	0.40562691	1.4072065	-0.036670441	0.45874844	1.0865159	-0.34788532	0.28954622	1.0981049	0.21664182	0.67716979	1.0607393	-0.4768657	0.21720455	1.0123093	0.43404729
324	1.292	0.093044766	0.033435923	-0.18004032	0.83043331	0.038896062	0.013432606	0.088921273	0.17645072	-0.20204915	0.68919141	0.053505014	0.057946393	0.12294657	0.16795415	-0.12292107	0.7031116	0.079752421	-0.02710188	0.046482317	0.21940204	-0.14709507	0.63645182	0.029475447	0.015208975	0.38711903	0.41568397	-0.21394994	0.69212571	0.45167417	0.084773546	0.4033983	0.37224691	-0.10016108	0.69146271	0.46105215	-0.043864913	0.48014465	0.78094956	-0.23279922	0.55911632	0.84302091	0.14958189	0.56207928	0.88937753	-0.1753617	0.6117741	0.92308655	0.058930875	0.38577161	0.92729114	-0.0308473	0.5106262	1.3955424	-0.17663969	0.45518141	1.38743	0.12746213	0.41108951	1.4088231	-0.036119155	0.46334534	1.0875332	-0.34644408	0.29724702	1.0980325	0.21646766	0.68122245	1.0591137	-0.47572709	0.22521012	1.0107115	0.4334012
325	1.296	0.10044106	0.03800995	-0.18200415	0.83040996	0.03888337	0.013450583	0.096794466	0.18095039	-0.20265923	0.68906507	0.053484301	0.057995696	0.13069909	0.17165563	-0.12354501	0.70317611	0.079813777	-0.027002271	0.054310858	0.22372424	-0.14729084	0.63646443	0.029473363	0.015156873	0.39797821	0.41583897	-0.21415308	0.69342168	0.45168907	0.084858021	0.41286694	0.37288388	-0.10011312	0.69317357	0.46116512	-0.043506636	0.48678858	0.78145477	-0.23186745	0.56324291	0.84409349	0.15007013	0.56779887	0.8906621	-0.17490996	0.61688908	0.92460462	0.06027618	0.38897672	0.92799938	-0.032955278	0.51621727	1.3968532	-0.17595061	0.46133978	1.3887185	0.12794126	0.41650446	1.4104494	-0.035564955	0.46787761	1.0886091	-0.34497876	0.30500554	1.097965	0.21616151	0.68516694	1.0574234	-0.47452408	0.23332563	1.0090906	0.43272102
326	1.3	0.1081063	0.042506259	-0.18373128	0.83037465	0.038874721	0.013479768	0.10488309	0.18536375	-0.20321147	0.68892687	0.053473478	0.058044151	0.13863858	0.17533876	-0.1241213	0.70323967	0.079871878	-0.026894203	0.06237498	0.22806571	-0.14777592	0.6364477	0.029460116	0.015136296	0.40893121	0.41611946	-0.21433684	0.69471566	0.45173334	0.085007398	0.42278175	0.37354718	-0.099970856	0.69475533	0.46124666	-0.043104206	0.49328248	0.78221792	-0.23085608	0.56741679	0.84522476	0.1504868	0.57341815	0.89215397	-0.17454331	0.62191742	0.9261314	0.061574909	0.39271887	0.92871986	-0.034568377	0.5217087	1.3982245	-0.1752974	0.46742047	1.3900381	0.12837389	0.42186814	1.4120756	-0.035005852	0.47233877	1.0897456	-0.34349984	0.31277116	1.0979173	0.21579904	0.68895689	1.0556587	-0.47329113	0.24152275	1.0074729	0.43201394
327	1.304	0.11603447	0.046911167	-0.1852472	0.83032559	0.038872823	0.013523352	0.11315009	0.18967867	-0.20370437	0.68880791	0.053457326	0.05807168	0.14676309	0.17898823	-0.12464608	0.70329207	0.079930609	-0.026782801	0.070692375	0.23240211	-0.14854296	0.63639917	0.029445791	0.015150734	0.41995685	0.41651387	-0.21447628	0.69634784	0.45184114	0.085351361	0.43297907	0.37429223	-0.099810215	0.6962411	0.46129837	-0.04266081	0.49961464	0.78325153	-0.2298592	0.57164718	0.84641625	0.15084277	0.57894868	0.89385947	-0.17426844	0.62685381	0.92767058	0.062807626	0.39790864	0.92969552	-0.035169217	0.5271173	1.3996608	-0.17468609	0.47340394	1.3913866	0.12876565	0.42717339	1.4136935	-0.034444628	0.47671547	1.0909418	-0.34202585	0.32051318	1.0978919	0.21542748	0.69258282	1.0538212	-0.47205559	0.24979242	1.00588	0.43128726
328	1.308	0.12423131	0.051213165	-0.18658682	0.83026457	0.038875388	0.013577547	0.12159918	0.19387108	-0.20417104	0.68875926	0.053421328	0.058050215	0.15506805	0.18259027	-0.12512325	0.70332766	0.079989344	-0.026673731	0.079235928	0.23662473	-0.14939525	0.63632677	0.029438243	0.015188494	0.43103652	0.41701119	-0.21456252	0.69833032	0.45201142	0.085883847	0.44323293	0.37515737	-0.099703374	0.69766193	0.46132343	-0.042180633	0.50581629	0.78453416	-0.22893344	0.57592828	0.84765377	0.15114057	0.58440111	0.89576471	-0.17409251	0.63170231	0.9292202	0.063955812	0.40461124	0.93100606	-0.034780032	0.53244306	1.4011633	-0.1741244	0.47929956	1.3927522	0.12914356	0.43242218	1.4152943	-0.033888581	0.48100629	1.0921943	-0.34056197	0.32822305	1.097882	0.21504702	0.69606971	1.0519235	-0.47080915	0.25814449	1.0043146	0.4305456
329	1.312	0.13268765	0.05539753	-0.18776918	0.83019727	0.03887717	0.013636699	0.1302724	0.19791796	-0.20466147	0.68880023	0.0533629	0.057972623	0.16354886	0.18613807	-0.12556964	0.70334989	0.08004561	-0.026569701	0.087965721	0.24066327	-0.1501924	0.63623195	0.029434315	0.0152479	0.44213243	0.41761486	-0.21461771	0.70035459	0.45220718	0.086462534	0.45344741	0.37611178	-0.099657825	0.69905097	0.46132175	-0.041676382	0.51193165	0.78602137	-0.22808934	0.58024745	0.84891531	0.15138204	0.58978688	0.89784313	-0.17401056	0.63647439	0.93078192	0.065004575	0.4120621	0.9325329	-0.033786594	0.53767043	1.4027298	-0.17362584	0.48511207	1.394125	0.1295323	0.437624	1.416874	-0.033343858	0.48522893	1.0935029	-0.33908429	0.33589983	1.0978835	0.2146461	0.69945002	1.0499765	-0.46952124	0.26658405	1.0027652	0.42978993
330	1.316	0.14137908	0.059450223	-0.1887953	0.83013048	0.038875956	0.013697626	0.13919908	0.20181476	-0.20519708	0.68884285	0.053308831	0.057897439	0.17220667	0.18962878	-0.12600773	0.70336866	0.080099106	-0.026469896	0.096838312	0.24453509	-0.15092007	0.63611853	0.029428667	0.015328515	0.45319599	0.41834154	-0.21467669	0.70213021	0.45238623	0.086952959	0.4636513	0.37710275	-0.099647053	0.70044886	0.46129246	-0.041167477	0.51799498	0.7876707	-0.22731949	0.58458999	0.85017624	0.15157124	0.5951143	0.90006587	-0.17400705	0.64118213	0.9323635	0.065941247	0.41913499	0.93412106	-0.032781314	0.54278467	1.4043568	-0.17320154	0.49082178	1.3955035	0.12993054	0.44278531	1.4184386	-0.032814938	0.48940543	1.0948671	-0.33756523	0.34354429	1.0978965	0.2142197	0.70274189	1.0479903	-0.46817296	0.27510786	1.0012195	0.42902015
331	1.32	0.15028477	0.063360497	-0.1896677	0.8300701	0.038874775	0.013760917	0.14836123	0.20556994	-0.20576406	0.68876103	0.053295038	0.057905621	0.18104252	0.19305579	-0.12645141	0.70339285	0.080153027	-0.026371752	0.10583351	0.24827996	-0.15159772	0.63601172	0.029425985	0.015403461	0.46420142	0.41920195	-0.2147542	0.70355656	0.45251924	0.087303558	0.4738809	0.37811055	-0.099643659	0.70190271	0.46124037	-0.040676506	0.52402821	0.78945659	-0.22662146	0.58894234	0.85141504	0.15171422	0.6003823	0.90240542	-0.1740705	0.64583708	0.93397256	0.066758141	0.42525093	0.93576444	-0.032168668	0.54778427	1.4060417	-0.172851	0.49640003	1.3968908	0.13032005	0.44790956	1.4199977	-0.032310607	0.49355398	1.0962808	-0.33600224	0.35115498	1.0979219	0.21376708	0.7059437	1.0459774	-0.46677804	0.2837082	0.99967477	0.42823841
332	1.324	0.15939666	0.067120906	-0.19040138	0.83002046	0.038877123	0.01382978	0.15772353	0.20918584	-0.2063415	0.68857951	0.053313815	0.057984365	0.1900567	0.19640419	-0.12690021	0.70342394	0.080213571	-0.02627105	0.11497454	0.25191344	-0.15224931	0.6359453	0.02943858	0.015433573	0.4751488	0.42019037	-0.21483905	0.70473666	0.45259742	0.087552204	0.48410283	0.37913966	-0.099613301	0.70343769	0.46117663	-0.040218176	0.53004943	0.79136394	-0.2259979	0.59329606	0.85262041	0.15181888	0.60558531	0.90483289	-0.17419579	0.65045204	0.93561131	0.067458404	0.43061184	0.93752378	-0.031952378	0.55268173	1.4077813	-0.17256466	0.50184197	1.3982892	0.13069249	0.45299951	1.4215557	-0.03184235	0.49769206	1.097735	-0.33442132	0.35872796	1.0979666	0.21328405	0.70903595	1.0439466	-0.46537714	0.29237279	0.9981391	0.42744665
